<svg width="218" height="195" viewBox="0 0 218 195" fill="none" xmlns="http://www.w3.org/2000/svg">
<path d="M3.1321 96.5483V86.9531L23.9879 54.0909H32.5142V67.1165H27.5675L15.3622 86.456V86.8537H45.5646V96.5483H3.1321ZM27.7166 105V93.615L27.9652 89.414V54.0909H39.4744V105H27.7166Z" fill="#FF7373"/>
<path d="M3.1321 96.5483H0.132102V99.5483H3.1321V96.5483ZM3.1321 86.9531L0.599147 85.3456L0.132102 86.0815V86.9531H3.1321ZM23.9879 54.0909V51.0909H22.3387L21.455 52.4834L23.9879 54.0909ZM32.5142 54.0909H35.5142V51.0909H32.5142V54.0909ZM32.5142 67.1165V70.1165H35.5142V67.1165H32.5142ZM27.5675 67.1165V64.1165H25.9133L25.0305 65.5153L27.5675 67.1165ZM15.3622 86.456L12.8252 84.8548L12.3622 85.5884V86.456H15.3622ZM15.3622 86.8537H12.3622V89.8537H15.3622V86.8537ZM45.5646 86.8537H48.5646V83.8537H45.5646V86.8537ZM45.5646 96.5483V99.5483H48.5646V96.5483H45.5646ZM27.7166 105H24.7166V108H27.7166V105ZM27.7166 93.615L24.7219 93.4378L24.7166 93.5264V93.615H27.7166ZM27.9652 89.414L30.96 89.5913L30.9652 89.5027V89.414H27.9652ZM27.9652 54.0909V51.0909H24.9652V54.0909H27.9652ZM39.4744 54.0909H42.4744V51.0909H39.4744V54.0909ZM39.4744 105V108H42.4744V105H39.4744ZM6.1321 96.5483V86.9531H0.132102V96.5483H6.1321ZM5.66506 88.5606L26.5209 55.6984L21.455 52.4834L0.599147 85.3456L5.66506 88.5606ZM23.9879 57.0909H32.5142V51.0909H23.9879V57.0909ZM29.5142 54.0909V67.1165H35.5142V54.0909H29.5142ZM32.5142 64.1165H27.5675V70.1165H32.5142V64.1165ZM25.0305 65.5153L12.8252 84.8548L17.8992 88.0571L30.1045 68.7176L25.0305 65.5153ZM12.3622 86.456V86.8537H18.3622V86.456H12.3622ZM15.3622 89.8537H45.5646V83.8537H15.3622V89.8537ZM42.5646 86.8537V96.5483H48.5646V86.8537H42.5646ZM45.5646 93.5483H3.1321V99.5483H45.5646V93.5483ZM30.7166 105V93.615H24.7166V105H30.7166ZM30.7114 93.7922L30.96 89.5913L24.9704 89.2368L24.7219 93.4378L30.7114 93.7922ZM30.9652 89.414V54.0909H24.9652V89.414H30.9652ZM27.9652 57.0909H39.4744V51.0909H27.9652V57.0909ZM36.4744 54.0909V105H42.4744V54.0909H36.4744ZM39.4744 102H27.7166V108H39.4744V102Z" fill="#E23636"/>
<path d="M97.5284 125.131C89.9148 125.131 83.3523 123.327 77.8409 119.719C72.3295 116.082 68.0824 110.869 65.0994 104.08C62.1165 97.2613 60.6392 89.0653 60.6676 79.4915C60.696 69.9176 62.1875 61.7926 65.142 55.1165C68.125 48.4119 72.358 43.3125 77.8409 39.8182C83.3523 36.2954 89.9148 34.5341 97.5284 34.5341C105.142 34.5341 111.705 36.2954 117.216 39.8182C122.756 43.3125 127.017 48.4119 130 55.1165C132.983 61.821 134.46 69.946 134.432 79.4915C134.432 89.0937 132.94 97.304 129.957 104.122C126.974 110.94 122.727 116.153 117.216 119.761C111.733 123.341 105.17 125.131 97.5284 125.131ZM97.5284 107.872C102.074 107.872 105.753 105.557 108.565 100.926C111.378 96.267 112.77 89.1221 112.741 79.4915C112.741 73.1846 112.102 67.9858 110.824 63.8949C109.545 59.7755 107.77 56.7074 105.497 54.6903C103.224 52.6733 100.568 51.6648 97.5284 51.6648C93.0114 51.6648 89.3608 53.9517 86.5767 58.5256C83.7926 63.071 82.3864 70.0596 82.358 79.4915C82.3295 85.8835 82.9403 91.1818 84.1903 95.3863C85.4688 99.5909 87.2585 102.73 89.5597 104.804C91.8608 106.849 94.517 107.872 97.5284 107.872Z" fill="#FF7373"/>
<path d="M77.8409 119.719L76.1887 122.223L76.1978 122.229L77.8409 119.719ZM65.0994 104.08L62.351 105.282L62.3528 105.286L65.0994 104.08ZM60.6676 79.4915L57.6676 79.4826L57.6676 79.4826L60.6676 79.4915ZM65.142 55.1165L62.4011 53.897L62.3987 53.9024L65.142 55.1165ZM77.8409 39.8182L79.4532 42.3481L79.4566 42.3459L77.8409 39.8182ZM117.216 39.8182L115.6 42.3459L115.608 42.3508L115.615 42.3556L117.216 39.8182ZM130 55.1165L132.741 53.897L132.741 53.897L130 55.1165ZM134.432 79.4915L131.432 79.4825V79.4915H134.432ZM129.957 104.122L127.209 102.92L127.209 102.92L129.957 104.122ZM117.216 119.761L118.856 122.273L118.859 122.271L117.216 119.761ZM108.565 100.926L111.129 102.483L111.134 102.477L108.565 100.926ZM112.741 79.4915L109.741 79.4915L109.741 79.5003L112.741 79.4915ZM110.824 63.8949L107.959 64.7841L107.96 64.7897L110.824 63.8949ZM105.497 54.6903L107.489 52.4465L107.489 52.4465L105.497 54.6903ZM86.5767 58.5256L89.135 60.0925L89.1393 60.0854L86.5767 58.5256ZM82.358 79.4915L85.3579 79.5048L85.3579 79.5005L82.358 79.4915ZM84.1903 95.3863L81.3147 96.2413L81.3174 96.2502L81.3201 96.2591L84.1903 95.3863ZM89.5597 104.804L87.5512 107.032L87.5589 107.039L87.5666 107.046L89.5597 104.804ZM97.5284 122.131C90.4053 122.131 84.4345 120.449 79.4841 117.209L76.1978 122.229C82.27 126.204 89.4242 128.131 97.5284 128.131V122.131ZM79.4931 117.215C74.5216 113.935 70.6262 109.201 67.8461 102.873L62.3528 105.286C65.5386 112.538 70.1375 118.23 76.1887 122.223L79.4931 117.215ZM67.8479 102.877C65.0726 96.5335 63.6401 88.772 63.6676 79.5004L57.6676 79.4826C57.6383 89.3587 59.1604 97.9892 62.351 105.282L67.8479 102.877ZM63.6676 79.5004C63.6951 70.2184 65.1425 62.5285 67.8854 56.3305L62.3987 53.9024C59.2325 61.0567 57.6969 69.6168 57.6676 79.4826L63.6676 79.5004ZM67.883 56.336C70.6584 50.098 74.5291 45.4862 79.4532 42.3481L76.2286 37.2883C70.1868 41.1387 65.5916 46.7258 62.4011 53.897L67.883 56.336ZM79.4566 42.3459C84.4107 39.1794 90.3916 37.5341 97.5284 37.5341V31.5341C89.438 31.5341 82.2939 33.4115 76.2252 37.2904L79.4566 42.3459ZM97.5284 37.5341C104.665 37.5341 110.646 39.1794 115.6 42.3459L118.832 37.2904C112.763 33.4115 105.619 31.5341 97.5284 31.5341V37.5341ZM115.615 42.3556C120.594 45.4958 124.487 50.1062 127.259 56.336L132.741 53.897C129.547 46.7176 124.918 41.1292 118.816 37.2808L115.615 42.3556ZM127.259 56.336C130.027 62.5562 131.459 70.2384 131.432 79.4825L137.432 79.5004C137.461 69.6536 135.939 61.0858 132.741 53.897L127.259 56.336ZM131.432 79.4915C131.432 88.795 129.985 96.5736 127.209 102.92L132.706 105.325C135.895 98.0343 137.432 89.3925 137.432 79.4915H131.432ZM127.209 102.92C124.428 109.275 120.535 114.003 115.573 117.251L118.859 122.271C124.919 118.304 129.521 112.605 132.706 105.325L127.209 102.92ZM115.576 117.249C110.658 120.46 104.687 122.131 97.5284 122.131V128.131C105.653 128.131 112.808 126.222 118.856 122.273L115.576 117.249ZM97.5284 110.872C103.338 110.872 107.895 107.808 111.129 102.483L106.001 99.3688C103.61 103.305 100.81 104.872 97.5284 104.872V110.872ZM111.134 102.477C114.374 97.1094 115.77 89.2958 115.741 79.4826L109.741 79.5003C109.769 88.9485 108.382 95.4247 105.997 99.3757L111.134 102.477ZM115.741 79.4915C115.741 73.0102 115.088 67.4823 113.687 63L107.96 64.7897C109.117 68.4893 109.741 73.3591 109.741 79.4915H115.741ZM113.689 63.0057C112.313 58.5717 110.308 54.9485 107.489 52.4465L103.506 56.9341C105.232 58.4662 106.778 60.9794 107.959 64.7841L113.689 63.0057ZM107.489 52.4465C104.667 49.9421 101.302 48.6648 97.5284 48.6648V54.6648C99.8345 54.6648 101.782 55.4044 103.506 56.9341L107.489 52.4465ZM97.5284 48.6648C91.7551 48.6648 87.2241 51.6921 84.0141 56.9657L89.1393 60.0854C91.4975 56.2113 94.2676 54.6648 97.5284 54.6648V48.6648ZM84.0184 56.9586C80.802 62.21 79.3869 69.8679 79.358 79.4824L85.3579 79.5005C85.3858 70.2514 86.7832 63.9321 89.135 60.0925L84.0184 56.9586ZM79.358 79.4781C79.3288 86.0426 79.9522 91.6583 81.3147 96.2413L87.066 94.5314C85.9284 90.7053 85.3303 85.7244 85.3579 79.5048L79.358 79.4781ZM81.3201 96.2591C82.6941 100.778 84.7096 104.471 87.5512 107.032L91.5681 102.575C89.8075 100.989 88.2434 98.4036 87.0606 94.5136L81.3201 96.2591ZM87.5666 107.046C90.4033 109.568 93.7644 110.872 97.5284 110.872V104.872C95.2697 104.872 93.3183 104.131 91.5527 102.562L87.5666 107.046Z" fill="#E23636"/>
<path d="M150.132 96.5483V86.9531L170.988 54.0909H179.514V67.1165H174.567L162.362 86.456V86.8537H192.565V96.5483H150.132ZM174.717 105V93.615L174.965 89.414V54.0909H186.474V105H174.717Z" fill="#FF7373"/>
<path d="M150.132 96.5483H147.132V99.5483H150.132V96.5483ZM150.132 86.9531L147.599 85.3456L147.132 86.0815V86.9531H150.132ZM170.988 54.0909V51.0909H169.339L168.455 52.4834L170.988 54.0909ZM179.514 54.0909H182.514V51.0909H179.514V54.0909ZM179.514 67.1165V70.1165H182.514V67.1165H179.514ZM174.567 67.1165V64.1165H172.913L172.03 65.5153L174.567 67.1165ZM162.362 86.456L159.825 84.8548L159.362 85.5884V86.456H162.362ZM162.362 86.8537H159.362V89.8537H162.362V86.8537ZM192.565 86.8537H195.565V83.8537H192.565V86.8537ZM192.565 96.5483V99.5483H195.565V96.5483H192.565ZM174.717 105H171.717V108H174.717V105ZM174.717 93.615L171.722 93.4378L171.717 93.5264V93.615H174.717ZM174.965 89.414L177.96 89.5913L177.965 89.5027V89.414H174.965ZM174.965 54.0909V51.0909H171.965V54.0909H174.965ZM186.474 54.0909H189.474V51.0909H186.474V54.0909ZM186.474 105V108H189.474V105H186.474ZM153.132 96.5483V86.9531H147.132V96.5483H153.132ZM152.665 88.5606L173.521 55.6984L168.455 52.4834L147.599 85.3456L152.665 88.5606ZM170.988 57.0909H179.514V51.0909H170.988V57.0909ZM176.514 54.0909V67.1165H182.514V54.0909H176.514ZM179.514 64.1165H174.567V70.1165H179.514V64.1165ZM172.03 65.5153L159.825 84.8548L164.899 88.0571L177.104 68.7176L172.03 65.5153ZM159.362 86.456V86.8537H165.362V86.456H159.362ZM162.362 89.8537H192.565V83.8537H162.362V89.8537ZM189.565 86.8537V96.5483H195.565V86.8537H189.565ZM192.565 93.5483H150.132V99.5483H192.565V93.5483ZM177.717 105V93.615H171.717V105H177.717ZM177.711 93.7922L177.96 89.5913L171.97 89.2368L171.722 93.4378L177.711 93.7922ZM177.965 89.414V54.0909H171.965V89.414H177.965ZM174.965 57.0909H186.474V51.0909H174.965V57.0909ZM183.474 54.0909V105H189.474V54.0909H183.474ZM186.474 102H174.717V108H186.474V102Z" fill="#E23636"/>
<g opacity="0.2" filter="url(#filter0_f_2_150)">
<circle cx="97.5886" cy="79.8611" r="64" transform="rotate(-4.70259 97.5886 79.8611)" fill="#8A8A8A"/>
</g>
<path d="M84.1981 79.618C83.9675 77.4205 84.8327 75.5544 85.8932 73.77C86.579 72.6291 87.7848 72.6689 88.7367 72.8987C91.5568 73.5715 92.803 75.8526 92.1921 78.8027C92.1632 78.9474 92.1169 79.0929 92.1054 79.2369C92.0271 81.9855 90.2527 83.3868 88.1528 84.5144C87.2821 84.9811 86.0455 84.6196 85.3624 83.7148C84.6429 82.7756 84.2325 81.716 84.217 80.4965C84.2233 80.227 84.2107 79.9225 84.1981 79.618ZM85.9358 76.9084C86.1319 77.0079 86.4588 77.3174 86.7732 77.3223C87.4897 77.3465 88.743 76.0027 88.4283 75.5671C88.1128 75.1136 87.4374 74.8186 86.8733 74.6805C86.328 74.5774 85.8476 75.6201 85.9358 76.9084ZM86.5348 80.4185C86.6546 80.3597 86.7561 80.2837 86.8758 80.2249C86.6686 79.8567 86.4781 79.4698 86.2201 79.1396C86.1838 79.1052 85.617 79.326 85.6055 79.47C85.4943 80.1565 86.0403 80.2774 86.5348 80.4185Z" fill="black"/>
<path d="M110.781 79.0643C110.837 80.8778 110.003 82.0542 108.895 82.9986C106.679 84.85 103.628 83.7969 102.891 80.982C102.312 78.797 102.353 76.6238 102.94 74.4467C103.134 73.6899 103.327 72.8957 104.488 73.2407C104.811 73.3397 105.248 73.0033 105.641 72.9497C107.438 72.763 109.435 74.2341 110.141 76.3202C110.463 77.2803 110.618 78.3035 110.781 79.0643ZM106.397 75.3145C105.841 75.974 106.093 77.068 106.816 77.2815C106.988 77.3305 107.285 77.2434 107.374 77.1273C107.48 76.9732 107.504 76.6352 107.404 76.4896C107.105 76.0715 106.751 75.7117 106.397 75.3145Z" fill="black"/>
<path d="M95.5381 87.8886C95.6324 86.9982 95.6855 86.0172 95.8898 85.0668C95.9531 84.7871 96.375 84.5665 96.6464 84.3336C96.7911 84.6601 97.048 84.9819 97.0609 85.2954C97.0899 85.996 96.9319 86.7044 96.9422 87.4058C96.9517 88.0887 96.8192 88.9622 98.0423 88.6346C98.0977 88.6138 98.2446 88.9956 98.3465 89.1945C97.8686 89.4175 97.3811 89.8625 96.9112 89.8265C96.5168 89.8059 96.066 89.3259 95.7694 88.9503C95.5912 88.7176 95.6305 88.3096 95.5381 87.8886Z" fill="black"/>
<path d="M81.8009 73.0124C81.6676 72.9356 81.4005 72.7656 81.1334 72.5955C81.31 72.3742 81.4626 72.0221 81.6831 71.9636C82.807 71.7359 83.5456 71.1785 83.9712 70.2389C84.1252 69.9197 84.3342 69.5818 84.6028 69.3401C84.7458 69.2025 85.116 69.1707 85.3234 69.2445C85.4745 69.3041 85.6166 69.5945 85.6055 69.7761C85.5075 70.9985 83.7023 72.7197 82.3181 72.9416C82.2261 72.9619 82.1333 72.9657 81.8009 73.0124Z" fill="black"/>
<path d="M111.892 72.6851C110.405 72.7649 108.696 71.3192 108.569 69.9724C108.541 69.7178 108.812 69.4143 108.943 69.1348C109.197 69.2705 109.644 69.3616 109.705 69.56C110.036 70.6974 110.836 71.1758 111.844 71.5178C112.078 71.5995 112.305 71.9555 112.334 72.2283C112.323 72.3932 111.977 72.5902 111.892 72.6851Z" fill="black"/>
<path d="M96.5102 95.9141C96.0871 96.3545 95.8041 96.8102 95.374 97.0817C95.1027 97.2621 94.5711 97.3264 94.2876 97.2112C94.0987 97.1345 93.978 96.4629 94.1342 96.3084C94.8268 95.6455 95.5382 94.876 96.4062 94.523C97.3652 94.1238 98.0065 95.0276 98.4974 95.6627C98.7424 95.9697 98.5796 96.5262 98.5979 96.9694C98.1985 96.8591 97.7999 96.7699 97.4451 96.6154C97.1367 96.459 96.8943 96.2154 96.5102 95.9141Z" fill="black"/>
<path d="M85.9438 77.8644C85.8507 76.5079 86.3601 75.4432 86.9557 75.5677C87.5512 75.6921 88.2656 76.0166 88.5988 76.4873C88.9119 76.9216 87.586 78.3183 86.8478 78.3115C86.4964 78.2888 86.151 77.9677 85.9438 77.8644Z" fill="white"/>
<path d="M86.7009 80.1546C86.3412 80.0567 85.9439 79.9728 86.0252 79.4806C86.0464 79.3794 86.4592 79.2244 86.4729 79.2489C86.6602 79.4793 86.7984 79.7494 86.9488 80.0064C86.8621 80.0602 86.7881 80.1134 86.7009 80.1546Z" fill="white"/>
<path d="M106.51 75.6623C106.958 76.0036 107.458 76.3428 107.857 76.7204C107.99 76.852 107.951 77.1449 107.805 77.3052C107.708 77.4292 107.276 77.4984 107.044 77.4566C106.065 77.2744 105.743 76.2767 106.51 75.6623Z" fill="white"/>
<path d="M214.729 169.954L155.929 119.597C165.047 106.602 169.858 90.4513 168.453 73.3643C165.268 34.6506 131.416 5.83863 92.8433 9.01166C54.2702 12.1847 25.5817 46.1413 28.7663 84.8549C31.9509 123.569 65.8028 152.381 104.376 149.208C121.901 147.766 137.375 139.955 148.759 128.241L207.478 178.536C209.84 180.547 213.38 180.255 215.382 177.886C217.381 175.517 217.089 171.967 214.729 169.954L214.729 169.954ZM103.461 138.084C71.0089 140.754 42.5283 116.514 39.849 83.9433C37.1698 51.373 61.3063 22.8043 93.7583 20.1348C126.21 17.4653 154.691 41.7056 157.37 74.2759C160.049 106.846 135.913 135.415 103.461 138.084Z" fill="#2E2E2E"/>
<path d="M58.5564 43.7346C59.6965 44.524 55.7084 49.1485 54.1295 51.4288C52.5507 53.7091 51.4829 58.4876 50.3428 57.6982C49.2026 56.9088 50.5435 51.6278 52.1223 49.3474C53.7011 47.0671 57.4162 42.9452 58.5564 43.7346Z" fill="white"/>
<path d="M62.4928 38.8684C63.1331 39.4409 62.7374 40.1704 61.5924 41.4511C60.4473 42.7318 60.2892 42.8418 59.6488 42.2692C59.0085 41.6967 59.373 41.2988 60.518 40.0181C61.663 38.7374 61.8524 38.2959 62.4928 38.8684Z" fill="white"/>
<defs>
<filter id="filter0_f_2_150" x="31.5851" y="13.8577" width="132.007" height="132.007" filterUnits="userSpaceOnUse" color-interpolation-filters="sRGB">
<feFlood flood-opacity="0" result="BackgroundImageFix"/>
<feBlend mode="normal" in="SourceGraphic" in2="BackgroundImageFix" result="shape"/>
<feGaussianBlur stdDeviation="1" result="effect1_foregroundBlur_2_150"/>
</filter>
</defs>
</svg>
