<svg width="390" height="143" viewBox="0 0 390 143" fill="none" xmlns="http://www.w3.org/2000/svg">
<path d="M437.836 14.93C437.836 7.11445 431.49 0.70166 423.608 0.70166H-33.7716C-41.5872 0.70166 -48 7.04765 -48 14.93C-48 22.7456 -41.654 29.1584 -33.7716 29.1584H37.838C45.6536 29.1584 52.0664 35.5044 52.0664 43.3868C52.0664 51.2024 45.7204 57.6153 37.838 57.6153H20.4032C12.5876 57.6153 6.1748 63.9612 6.1748 71.8436C6.1748 79.6592 12.5208 86.072 20.4032 86.072H92.0796C99.8952 86.072 106.308 92.418 106.308 100.3C106.308 108.116 99.962 114.529 92.0796 114.529H77.3836C69.568 114.529 63.1552 120.875 63.1552 128.757C63.1552 136.573 69.5012 142.986 77.3836 142.986H312.52C320.335 142.986 326.748 136.64 326.748 128.757C326.748 120.942 320.402 114.529 312.52 114.529H297.824C290.008 114.529 283.595 108.183 283.595 100.3C283.595 92.4848 289.941 86.072 297.824 86.072H369.5C377.316 86.072 383.728 79.726 383.728 71.8436C383.728 64.028 377.382 57.6153 369.5 57.6153H352.065C344.25 57.6153 337.837 51.2692 337.837 43.3868C337.837 35.5712 344.183 29.1584 352.065 29.1584H423.675C431.49 29.1584 437.836 22.7456 437.836 14.93Z" fill="url(#paint0_linear_2_148)"/>
<defs>
<linearGradient id="paint0_linear_2_148" x1="194.934" y1="211.935" x2="194.934" y2="11.3035" gradientUnits="userSpaceOnUse">
<stop stop-color="#7FD8E0" stop-opacity="0"/>
<stop offset="1" stop-color="#C0E9ED"/>
</linearGradient>
</defs>
</svg>
