<svg width="80" height="30" viewBox="0 0 80 30" fill="none" xmlns="http://www.w3.org/2000/svg">
<path d="M69.5033 15.4123L78.6087 29.25H0.75V0.75H78.6087L69.5033 14.5877L69.2321 15L69.5033 15.4123Z" stroke="#094172" stroke-width="1.5"/>
<path d="M21.3017 17.775L14.6005 8.83333H12.2778V21.5367H14.6005V12.6156L21.3017 21.5367H23.6039V8.83333H21.3017V17.775Z" fill="#094172"/>
<path d="M27.0367 21.5367H36.6155V19.44H29.3594V16.1305H35.9167V14.0133H29.3594V10.9506H36.6155V8.83333H27.0367V21.5367Z" fill="#094172"/>
<path d="M52.4022 17.9394L49.4011 8.83333H46.8933L43.8717 17.9394L41.1583 8.83333H38.63L42.6589 21.5367H44.9406L48.1472 12.1017L51.3333 21.5367H53.6561L57.6645 8.83333H55.1361L52.4022 17.9394V17.9394Z" fill="#094172"/>
</svg>
